<?xml version="1.0" standalone="no"?>
<!DOCTYPE svg PUBLIC "-//W3C//DTD SVG 20010904//EN"
 "http://www.w3.org/TR/2001/REC-SVG-20010904/DTD/svg10.dtd">
<svg version="1.0" xmlns="http://www.w3.org/2000/svg"
 width="1500.000000pt" height="1500.000000pt" viewBox="0 0 1500.000000 1500.000000"
 preserveAspectRatio="xMidYMid meet">
<metadata>
Created by potrace 1.14, written by Peter Selinger 2001-2017
</metadata>
<g transform="translate(0.000000,1500.000000) scale(0.100000,-0.100000)"
fill="#000000" stroke="none">
<path d="M11090 11050 c0 -22 -21 -35 -72 -45 -20 -4 -44 -16 -54 -26 -9 -10
-30 -19 -46 -19 -15 0 -45 -9 -65 -20 -21 -11 -45 -20 -54 -20 -9 0 -22 -7
-29 -15 -7 -8 -22 -15 -34 -15 -28 -1 -169 -79 -209 -117 -18 -16 -52 -43 -77
-59 -52 -34 -43 -26 -196 -174 -66 -63 -142 -135 -169 -159 -131 -116 -536
-516 -609 -601 -78 -91 -142 -158 -636 -657 -124 -126 -247 -255 -275 -287
-27 -33 -63 -76 -80 -95 -16 -20 -190 -197 -385 -393 -1028 -1034 -1141 -1145
-1187 -1165 -35 -14 -114 -4 -121 16 -2 6 -27 24 -55 40 -29 16 -65 43 -81 60
-17 17 -36 31 -43 31 -15 0 -81 60 -274 250 -345 338 -409 399 -484 460 -51
42 -80 73 -80 85 0 13 -8 21 -22 23 -12 2 -101 81 -205 183 -287 283 -358 350
-437 414 -40 33 -105 92 -145 131 -39 40 -105 99 -146 132 -41 33 -120 101
-175 152 -55 50 -124 108 -154 128 -97 67 -166 112 -186 121 -11 5 -45 25 -75
45 -31 20 -67 36 -83 36 -16 0 -40 9 -54 20 -14 11 -36 20 -50 20 -13 0 -34 7
-47 15 -12 8 -45 18 -72 21 -27 3 -68 12 -92 20 -59 19 -409 20 -455 0 -18 -7
-55 -16 -82 -20 -28 -4 -60 -14 -72 -22 -12 -8 -32 -14 -44 -14 -11 0 -32 -9
-46 -20 -14 -11 -39 -20 -55 -20 -17 0 -41 -9 -55 -20 -14 -11 -36 -20 -48
-20 -12 0 -28 -7 -35 -15 -7 -8 -18 -15 -25 -15 -7 0 -23 -8 -36 -19 -13 -10
-35 -22 -49 -26 -14 -4 -36 -18 -50 -30 -14 -13 -39 -31 -56 -42 -17 -10 -56
-39 -85 -64 -30 -26 -87 -74 -128 -108 -74 -62 -171 -164 -171 -181 0 -5 -16
-25 -36 -44 -20 -19 -45 -52 -56 -73 -11 -21 -31 -50 -43 -65 -12 -15 -33 -46
-45 -70 -12 -24 -33 -61 -46 -83 -13 -22 -29 -51 -35 -65 -6 -14 -19 -42 -30
-62 -10 -20 -19 -44 -19 -53 0 -8 -9 -32 -20 -52 -11 -21 -20 -52 -20 -70 0
-17 -7 -38 -15 -47 -23 -22 -23 -701 0 -710 9 -3 15 -18 15 -39 0 -19 9 -46
20 -60 11 -14 20 -34 20 -45 0 -10 9 -29 20 -42 11 -13 20 -31 20 -40 0 -9 9
-25 20 -35 11 -10 20 -26 20 -35 0 -9 9 -25 20 -35 11 -10 20 -25 20 -33 0
-14 49 -80 89 -120 9 -10 30 -37 46 -61 17 -24 100 -117 185 -205 85 -88 235
-244 333 -346 97 -102 210 -216 250 -255 39 -38 97 -96 127 -128 148 -157 831
-829 975 -959 33 -30 195 -189 361 -354 354 -352 445 -439 579 -559 55 -49
174 -162 265 -251 185 -182 302 -292 334 -313 26 -18 159 -133 168 -145 3 -5
26 -21 51 -35 61 -35 158 -102 179 -124 10 -9 26 -17 37 -17 10 0 24 -7 31
-15 7 -8 20 -15 29 -15 9 0 30 -9 46 -20 17 -11 40 -20 51 -20 12 0 27 -7 34
-15 7 -8 28 -17 49 -20 20 -4 49 -13 64 -21 15 -9 53 -18 85 -21 32 -3 61 -12
65 -19 4 -8 17 -14 27 -14 11 0 20 -7 20 -15 0 -13 38 -15 285 -15 247 0 285
2 285 15 0 8 6 15 14 15 7 0 19 6 25 14 6 7 42 16 87 19 41 4 85 14 97 22 12
8 31 15 42 15 11 0 35 9 53 20 18 11 40 20 50 20 9 0 32 9 50 20 18 11 41 20
51 20 10 0 24 7 31 15 7 8 20 15 30 15 9 0 29 11 44 25 15 14 32 25 38 25 15
0 148 123 404 377 127 125 268 264 315 307 221 208 548 526 766 748 45 46 113
113 150 150 97 97 164 167 202 213 31 38 258 281 291 312 47 44 600 597 860
861 313 317 400 407 530 552 41 46 172 181 290 301 404 408 509 518 534 556
13 21 75 90 136 153 62 63 123 131 135 151 13 20 51 68 85 105 33 38 72 88 85
111 14 22 42 59 62 81 44 45 113 153 113 175 0 8 6 17 13 20 13 5 41 53 102
177 59 119 75 157 75 181 0 13 9 38 20 54 13 20 20 47 20 83 0 39 5 57 20 72
19 19 20 33 20 220 0 187 -1 201 -20 220 -14 14 -20 33 -20 68 0 30 -7 58 -20
77 -11 17 -20 44 -20 60 0 17 -9 44 -20 60 -11 17 -20 40 -20 51 0 12 -7 27
-15 34 -8 7 -15 20 -15 29 0 9 -7 27 -14 41 -8 14 -31 58 -51 98 -19 39 -40
72 -45 72 -6 0 -10 8 -10 19 0 10 -8 29 -18 42 -10 13 -24 37 -32 53 -8 16
-34 50 -57 74 -24 24 -43 48 -43 52 0 31 -183 221 -235 244 -16 7 -49 32 -73
54 -24 22 -57 46 -75 53 -17 7 -39 20 -48 29 -10 8 -24 20 -31 26 -22 17 -264
134 -279 134 -8 0 -27 7 -44 16 -16 9 -52 20 -79 25 -27 4 -56 15 -65 23 -9 8
-41 18 -71 22 -62 8 -80 18 -80 45 0 18 -12 19 -225 19 -217 0 -225 -1 -225
-20z"/>
<path d="M5920 8140 c0 -5 9 -10 21 -10 11 0 17 5 14 10 -3 6 -13 10 -21 10
-8 0 -14 -4 -14 -10z"/>
<path d="M6330 7916 c0 -2 8 -10 18 -17 15 -13 16 -12 3 4 -13 16 -21 21 -21
13z"/>
<path d="M6474 7781 c21 -23 26 -26 26 -11 0 5 -10 15 -22 21 -23 12 -23 12
-4 -10z"/>
<path d="M6780 7496 c0 -2 8 -10 18 -17 15 -13 16 -12 3 4 -13 16 -21 21 -21
13z"/>
</g>
</svg>
