<?xml version="1.0" standalone="no"?>
<!DOCTYPE svg PUBLIC "-//W3C//DTD SVG 20010904//EN"
 "http://www.w3.org/TR/2001/REC-SVG-20010904/DTD/svg10.dtd">
<svg version="1.0" xmlns="http://www.w3.org/2000/svg"
 width="700.000000pt" height="700.000000pt" viewBox="0 0 700.000000 700.000000"
 preserveAspectRatio="xMidYMid meet">
<metadata>
Created by potrace 1.14, written by Peter Selinger 2001-2017
</metadata>
<g transform="translate(0.000000,700.000000) scale(0.100000,-0.100000)"
fill="#000000" stroke="none">
<path d="M3278 6995 c-1 -1 -42 -5 -89 -9 -47 -4 -95 -8 -106 -10 -11 -3 -44
-7 -74 -11 -47 -6 -132 -21 -234 -40 -138 -26 -429 -116 -600 -185 -118 -47
-339 -156 -428 -212 -43 -26 -81 -48 -84 -48 -2 0 -39 -23 -81 -51 -672 -450
-1158 -1083 -1406 -1834 -47 -141 -60 -190 -100 -375 -36 -167 -45 -231 -63
-420 -15 -163 -8 -589 12 -711 2 -13 6 -46 10 -74 9 -76 16 -116 25 -160 5
-22 11 -53 14 -70 9 -49 13 -66 36 -155 21 -85 73 -257 89 -295 5 -11 29 -74
55 -141 55 -142 169 -372 246 -497 30 -48 60 -95 65 -105 25 -44 135 -194 212
-289 148 -183 312 -349 493 -500 102 -85 305 -233 320 -233 5 0 10 -4 10 -10
0 -5 4 -10 10 -10 5 0 42 -21 81 -46 259 -165 745 -361 1044 -420 11 -2 31 -6
45 -9 251 -52 432 -70 720 -70 235 0 358 8 523 35 40 6 83 13 97 16 194 30
458 106 683 195 644 256 1238 739 1614 1315 7 11 24 36 37 56 68 102 266 477
266 504 0 3 8 24 19 47 20 46 77 203 110 307 42 133 102 409 116 535 4 33 9
69 11 80 26 128 25 703 -1 830 -2 11 -7 40 -10 65 -3 25 -7 56 -10 70 -3 14
-7 39 -10 55 -88 517 -311 1038 -629 1465 -227 306 -558 624 -856 820 -12 8
-33 23 -45 33 -13 9 -26 17 -29 17 -3 0 -37 20 -76 45 -129 84 -399 214 -598
289 -183 69 -486 148 -647 170 -22 3 -51 8 -65 11 -13 2 -52 7 -86 11 -33 3
-74 8 -90 10 -33 5 -540 14 -546 9z"/>
</g>
</svg>
