<svg width="1004" height="1004" viewBox="0 0 1004 1004" fill="none" xmlns="http://www.w3.org/2000/svg">
<path d="M856.968 856.968C660.924 1053.01 343.076 1053.01 147.032 856.968C-49.0108 660.924 -49.0108 343.076 147.032 147.032C343.076 -49.0108 660.924 -49.0108 856.968 147.032C1053.01 343.076 1053.01 660.924 856.968 856.968Z" fill="black"/>
<path d="M199.926 492.514C169.075 461.663 169.075 411.643 199.926 380.791C230.778 349.94 280.798 349.94 311.649 380.791L365.389 434.532C366.561 435.703 366.561 437.603 365.389 438.774L257.909 546.254C256.738 547.426 254.838 547.426 253.666 546.254L199.926 492.514Z" fill="white"/>
<rect x="267.102" y="559.689" width="158" height="158" transform="rotate(-45 267.102 559.689)" fill="white"/>
<path fillRule="evenodd" clip-rule="evenodd" d="M971.618 324.273L501.651 794.24L389.928 682.517L888.939 183.506L894.913 189.48C928.015 230.991 953.583 276.533 971.618 324.273Z" fill="white"/>
</svg>
