<svg width="947" height="947" fill="none" xmlns="http://www.w3.org/2000/svg"><circle cx="473.5" cy="473.5" r="468.5" fill="#020807" stroke="#1E293B" strokeWidth="10"/><path d="m89 431 450.5-259c26.5-9.5 52.5 5.5 60 15.5 6 8 10.5 22 12 28v8l-.5 8.5-1.5 6-4 9-5.5 8-6 6.5-8 6-382.5 219-24 14.5-18 10.5L151 518l-12.5 5-9.5 1.5h-12l-11.5-3-7-3.5-9.5-6.5-10-12-6-13-2-14.5v-9.5l2-7 3-7 5-9 8-8.5ZM742.001 533.5c-11.2-8.4-28.001-9.5-35.501-9.5l-8 1-7 2-6.5 3-22.5 13-296 172.5L354 723l-8 5.5-7 7.5c-2.333 3.333-7.3 10.8-8.5 14-1.2 3.2-2.833 12.667-3.499 17-.167 11 4.3 35.8 23.5 47 19.2 11.2 38.333 8.667 45.5 6l8-2.5 271.5-158.5 69.5-42c3.166-2.833 10.7-10.8 15.5-20 4.8-9.2 2-28.833 0-37.5-1.5-5.167-7.3-17.6-18.5-26ZM191.55 593.902 643.3 336.015c26.574-9.46 52.646 5.476 60.167 15.433 6.016 7.966 10.529 21.905 12.033 27.88v7.965l-.501 8.464-1.505 5.974-4.011 8.961-5.515 7.966-6.017 6.472-8.022 5.974-383.561 218.059-24.067 14.438-18.05 10.455-10.529 6.472-12.535 4.978-9.526 1.494h-12.033l-11.532-2.987-7.02-3.485-9.526-6.472-10.028-11.949-6.016-12.944-2.006-14.437v-9.46l2.006-6.97 3.008-6.969 5.014-8.962 8.022-8.463ZM794 251.5l-7.5 2.5-40 22.5-9 6-5.5 6-7 10-2.5 6.5c-1.833 4.167-4.8 15.8-2 29s10.167 22.5 13.5 25.5c4.167 4.833 16.3 14.8 31.5 16 15.2 1.2 25.667-2.167 29-4l38.5-22c7.5-4.667 23.1-18 25.5-34 2.4-16-.333-27-2-30.5l-2-5-2.5-4.5-3.5-5-4.5-5-5-4.5-6.5-4.5-5-2.5-8.5-2.5-10.5-1.5h-7l-7.5 1.5Z" fill="#D9D9D9"/><g filter="url(#a)"><path d="M101.632 364.632c-4.491 4.491-11.773 4.491-16.264 0-4.49-4.491-4.49-11.773 0-16.264 4.491-4.491 11.773-4.491 16.264 0s4.491 11.773 0 16.264Z" fill="#000"/><path d="M85.262 364.738c4.55 4.549 11.926 4.549 16.476 0 4.549-4.55 4.549-11.926 0-16.476-4.55-4.549-11.926-4.549-16.476 0-4.55 4.55-4.55 11.926 0 16.476Z" stroke="#fff" strokeWidth=".3"/></g><path d="M86.58 356.283a1.81 1.81 0 1 1 2.56-2.56l1.186 1.186a.133.133 0 0 1 0 .188l-2.372 2.372a.134.134 0 0 1-.188 0l-1.186-1.186ZM88.118 357.822l2.56-2.56 2.56 2.56-2.56 2.56z" fill="#fff"/><path fill-rule="evenodd" clipRule="evenodd" d="m104.258 352.43-10.766 10.766-2.56-2.559 11.432-11.432.132.132a11.44 11.44 0 0 1 1.762 3.093Z" fill="#fff"/><g filter="url(#b)"><path d="M809.192 609.192c-5.076 5.077-13.308 5.077-18.384 0-5.077-5.076-5.077-13.308 0-18.384 5.076-5.077 13.308-5.077 18.384 0 5.077 5.076 5.077 13.308 0 18.384Z" fill="#fff"/></g><path d="M792.177 599.755a2.045 2.045 0 1 1 2.893-2.893l1.341 1.341a.148.148 0 0 1 0 .211l-2.681 2.682a.15.15 0 0 1-.212 0l-1.341-1.341ZM793.916 601.495l2.893-2.893 2.894 2.893-2.894 2.893z" fill="#000"/><path fill-rule="evenodd" clipRule="evenodd" d="m812.159 595.4-12.17 12.171-2.893-2.894 12.922-12.922.153.153a12.894 12.894 0 0 1 1.988 3.492Z" fill="#000"/><circle cx="464.975" cy="472.999" r="203" fill="#1E293B" stroke="#1E293B" strokeWidth="2"/><ellipse cx="531.975" cy="453.498" rx="27" ry="33.5" fill="#F8FAFC"/><ellipse cx="524.832" cy="459.684" rx="7.854" ry="9.912" transform="rotate(6.064 524.832 459.684)" fill="#020817"/><ellipse cx="395.975" cy="453.498" rx="27" ry="33.5" fill="#F8FAFC"/><ellipse cx="402.771" cy="461.638" rx="7.854" ry="9.912" transform="rotate(-5.68 402.771 461.638)" fill="#020817"/><path d="M541.475 570.999c1.6 11.6-4.667 15.5-8 16-6.667-2.334-25.3-7.4-46.5-9-43-2-48 0-60.5 2-5.431.869-25.5 7.968-33 7-15.5-2.001.5-22.5 10.5-31.5 8-7.2 22-13 28-15 1-1.167 9.2-3.9 34-5.5 31-2 73.5 21.5 75.5 36Z" fill="#F8FAFC"/><path d="m543.974 383.998-13-4c-.334-1.167-1.1-4.2-1.5-7-.4-2.8 3.833-4.5 6-5l7.5 1 7 2 6 2 9 4.5 6.5 4.5 5.5 3.5 6 7 4 4.5c2 3.333 6 10.1 6 10.5 0 .5 6.5 8.5 1.5 12.5-4 3.2-8 1.333-9.5 0l-4.5-6-3.5-5-8-8-13-10-12-7ZM348.189 410.352l-7.228 11.522c-1.213.02-4.342-.025-7.15-.363-2.808-.339-3.354-4.868-3.277-7.09l2.907-6.986 3.744-6.243 3.485-5.278 6.676-7.529 6.029-5.114 4.804-4.407 8.314-3.983 5.382-2.699c3.738-1.069 11.309-3.182 11.696-3.078.483.129 9.892-4.079 12.462 1.786 2.056 4.692-.783 8.073-2.459 9.176l-6.96 2.794-5.736 2.087-9.798 5.657-13.024 9.968-9.867 9.78Z" fill="#F8FAFC" stroke="#000"/><path d="M728.5 127v-13h2v13h14v2h-14v13h-2v-13H716v-2h12.5ZM126.5 585v-13h2v13h14v2h-14v13h-2v-13H114v-2h12.5ZM713.318 717.427l-2.971-12.656 1.947-.457 2.971 12.656 13.63-3.2.457 1.947-13.63 3.2 2.972 12.656-1.948.457-2.971-12.656-12.169 2.857-.457-1.947 12.169-2.857Z" fill="#fff" stroke="#fff"/><path fill-rule="evenodd" clipRule="evenodd" d="M424 180c11.598 0 21-9.402 21-21s-9.402-21-21-21-21 9.402-21 21 9.402 21 21 21Zm0-8.167c7.088 0 12.833-5.745 12.833-12.833s-5.745-12.833-12.833-12.833-12.833 5.745-12.833 12.833 5.745 12.833 12.833 12.833ZM251 794c11.598 0 21-9.402 21-21s-9.402-21-21-21-21 9.402-21 21 9.402 21 21 21Zm0-8.167c7.088 0 12.833-5.745 12.833-12.833s-5.745-12.833-12.833-12.833-12.833 5.745-12.833 12.833 5.745 12.833 12.833 12.833ZM633 828c7.18 0 13-5.82 13-13s-5.82-13-13-13-13 5.82-13 13 5.82 13 13 13Zm.001-5.055a7.944 7.944 0 1 0 0-15.889 7.944 7.944 0 0 0 0 15.889Z" fill="#fff"/><path d="M387.357 500.762c-.822-1.469-2.071-1.004-2.593-.587l-1.039 1.047-3.871 5.055-6.98 10.283c-1.87 2.355-5.709 8.069-6.105 12.084-.496 5.018 2.607 13.257 10.079 14.95 5.979 1.355 11.577-3.682 13.63-6.37l1.093-1.997.277-1.22.4-2.475.076-1.746.046-3.036-.425-3.784-1.725-9.37-1.564-7.248c-.09-1.25-.477-4.117-1.299-5.586Z" fill="#A2A2A2"/><path d="m387.931 521.576-.59-.935c-.499-.627-1.192-.164-1.476.146l-.769 1.269-1.404 3.369-1.737 5.539c-.572.405-1.287 3.556-1.036 4.575.703 2.865 2.695 2.962 3.702 2.763l1.871-1.179.581-1.151 1.129-2.149.345-1.525.332-2.17.227-1.712-.091-2.426-.348-2.003-.368-1.205-.368-1.206Z" fill="#D5DDE6"/><defs><filter id="a" x="80.7" y="344.7" width="25.6" height="25.6" filterUnits="userSpaceOnUse" colorInterpolationFilters="sRGB"><feFlood floodOpacity="0" result="BackgroundImageFix"/><feColorMatrix in="SourceAlpha" values="0 0 0 0 0 0 0 0 0 0 0 0 0 0 0 0 0 0 127 0" result="hardAlpha"/><feOffset dy="1"/><feGaussianBlur stdDeviation=".5"/><feComposite in2="hardAlpha" operator="out"/><feColorMatrix values="0 0 0 0 0.920557 0 0 0 0 0.920557 0 0 0 0 0.920557 0 0 0 0.25 0"/><feBlend in2="BackgroundImageFix" result="effect1_dropShadow_153_103"/><feBlend in="SourceGraphic" in2="effect1_dropShadow_153_103" result="shape"/></filter><filter id="b" x="785" y="587" width="30" height="30" filterUnits="userSpaceOnUse" colorInterpolationFilters="sRGB"><feFlood floodOpacity="0" result="BackgroundImageFix"/><feColorMatrix in="SourceAlpha" values="0 0 0 0 0 0 0 0 0 0 0 0 0 0 0 0 0 0 127 0" result="hardAlpha"/><feOffset dy="2"/><feGaussianBlur stdDeviation="1"/><feComposite in2="hardAlpha" operator="out"/><feColorMatrix values="0 0 0 0 0 0 0 0 0 0 0 0 0 0 0 0 0 0 0.15 0"/><feBlend in2="BackgroundImageFix" result="effect1_dropShadow_153_103"/><feBlend in="SourceGraphic" in2="effect1_dropShadow_153_103" result="shape"/></filter></defs></svg>