<svg width="1869" height="1869" viewBox="0 0 1869 1869" fill="none" xmlns="http://www.w3.org/2000/svg">
<path d="M1595.29 1595.29C1230.35 1960.24 638.654 1960.24 273.709 1595.29C-91.2363 1230.35 -91.2363 638.654 273.709 273.709C638.654 -91.2363 1230.35 -91.2363 1595.29 273.709C1960.24 638.654 1960.24 1230.35 1595.29 1595.29Z" fill="black"/>
<path d="M324.046 868.714C293.195 837.863 293.195 787.843 324.046 756.991L420.301 660.736C451.153 629.884 501.173 629.884 532.024 660.736L682.02 810.731C683.191 811.903 683.191 813.802 682.02 814.974L478.284 1018.71C477.112 1019.88 475.213 1019.88 474.041 1018.71L324.046 868.714Z" fill="white"/>
<rect x="497.224" y="1041.89" width="294.126" height="294.126" transform="rotate(-45 497.224 1041.89)" fill="white"/>
<path fill-rule="evenodd" clipRule="evenodd" d="M1808.72 603.651L933.85 1478.52L725.872 1270.54L1654.81 341.605L1665.93 352.723C1727.55 429.999 1775.15 514.78 1808.72 603.651Z" fill="white"/>
</svg>
